<?xml version="1.0" encoding="UTF-8"?>
<!DOCTYPE svg PUBLIC "-//W3C//DTD SVG 1.1//EN" "http://www.w3.org/Graphics/SVG/1.1/DTD/svg11.dtd">
<!-- Creator: CorelDRAW -->
<svg xmlns="http://www.w3.org/2000/svg" xml:space="preserve" width="50" height="50" shape-rendering="geometricPrecision" text-rendering="geometricPrecision" image-rendering="optimizeQuality" fill-rule="evenodd" clip-rule="evenodd"
viewBox="0 0 5.08 5.08"
 xmlns:xlink="http://www.w3.org/1999/xlink">
 <g id="Слой_x0020_1">
  <metadata id="CorelCorpID_0Corel-Layer"/>
  <path fill="none" stroke="black" stroke-width="0.1" d="M4.4041 1.1266l-1.8308 -0.9199c-0.0419,-0.021 -0.0494,-0.0145 -0.0794,0.0008l-1.8509 0.9465c-0.0458,0.0234 -0.0324,0.101 -0.0324,0.1013l0.0036 2.3185c0,0.0309 0.0289,0.0895 0.2154,0.1967l1.592 0.9152c0.0546,0.0313 0.172,0.046 0.2985,-0.0267l1.6393 -0.9418c0.0737,-0.0424 0.106,-0.0988 0.106,-0.1731l0.0006 -2.3375c-0.0036,-0.0329 -0.0211,-0.058 -0.0619,-0.08z"/>
  <path fill="none" stroke="black" stroke-width="0.1" d="M4.2374 1.3618l0.0031 1.9692c0.0001,0.0494 -0.0017,0.0901 -0.0026,0.1163 -0.0007,0.0217 -0.0318,0.0392 -0.0507,0.0549 -0.0189,0.0156 -0.621,0.3534 -0.6729,0.3866 -0.0505,0.0322 -0.1029,0.0264 -0.1225,0.0109 -0.0197,-0.0154 -0.5354,-0.3078 -0.6536,-0.3756 -0.0766,-0.044 -0.0881,-0.0681 -0.0884,-0.0808 -0.0031,-0.131 -0.0033,-0.27 -0.0022,-0.4042l0.0037 -0.4443c0.0004,-0.0444 0.0296,-0.06 0.0486,-0.0709l0.7058 -0.407c0.0132,-0.0077 0.0375,-0.013 0.0375,-0.0098l0.0025 0.597c0,0.0026 -0.2321,0.1293 -0.2432,0.1356 -0.0404,0.0229 -0.0295,0.0689 -0.0295,0.0853 0,0.0164 0.0025,0.139 0.0033,0.196 0.0008,0.0569 0.0088,0.0451 0.0328,0.0634 0.024,0.0184 0.1323,0.0832 0.1848,0.1072 0.0181,0.0083 0.0351,0.0199 0.0485,0.0163l0.0434 -0.0119c0,0 0.1225,-0.07 0.1772,-0.1028 0.0547,-0.0328 0.0459,-0.0634 0.0459,-0.0634 0,0 -0.0007,-0.1552 -0.0029,-0.2515 0.0004,-0.0129 -0.0086,-0.0271 -0.0234,-0.0415 -0.0805,-0.0365 -0.2382,-0.1314 -0.2382,-0.1314l-0.0012 -0.5983c0.0072,-0.0014 0.0237,0.0043 0.037,0.0099l0.1772 0.1013 0.0502 -0.0137 -0.0002 -1.1023c0,-0.0258 0.0206,-0.0382 0.0348,-0.0387 0.0142,-0.0004 0.023,0.0005 0.0346,0.007l0.428 0.2398c0.031,0.0173 0.0312,0.0396 0.0326,0.0514z"/>
  <path fill="none" stroke="red" stroke-width="0.1" d="M2.4538 1.9487c-0.0025,-0.0206 -0.0093,-0.0516 -0.0689,-0.0186l-0.4027 0.2232c-0.0229,0.0167 -0.0481,0.0246 -0.0481,0.0886l-0.0003 0.883c-0.0019,0.0246 -0.0267,0.0526 -0.0439,0.0624l-0.1803 0.108c-0.0428,0.0288 -0.0512,0.0242 -0.0908,0.0019l-0.1792 -0.1017c-0.0231,-0.0131 -0.0398,-0.0381 -0.0396,-0.0708l0.0044 -0.8873c0,0 0.0016,-0.0499 -0.0426,-0.0753l-0.4222 -0.2428c0,0 -0.0631,-0.0187 -0.0634,0.036l-0.0026 1.4874c0,0.0126 0.0118,0.0367 0.0884,0.0807l0.6535 0.3757c0.0217,0.0124 0.0721,0.0213 0.1225,-0.011 0.0519,-0.0331 0.6541,-0.371 0.673,-0.3866 0.0188,-0.0156 0.0508,-0.0332 0.0507,-0.0549l-0.0079 -1.4979z"/>
 </g>
</svg>
