<svg xmlns="http://www.w3.org/2000/svg" width="19.2" height="19.2" shape-rendering="geometricPrecision" text-rendering="geometricPrecision" image-rendering="optimizeQuality" fill-rule="evenodd" clip-rule="evenodd" viewBox="0 0 5.08 5.08"><g fill="none" stroke-width=".076"><path stroke="#000" d="M4.404 1.127l-1.83-.92c-.043-.021-.05-.015-.08 0l-1.851.947c-.046.023-.032.101-.032.101l.003 2.319c0 .03.03.09.216.196l1.592.916c.054.031.172.046.298-.027l1.64-.942c.073-.042.105-.099.105-.173l.001-2.337c-.004-.033-.021-.058-.062-.08z"/><path stroke="#000" d="M4.237 1.362L4.24 3.33l-.002.116c0 .022-.032.04-.05.055-.02.016-.622.354-.674.387-.05.032-.103.026-.122.01-.02-.015-.536-.307-.654-.375-.076-.044-.088-.068-.088-.08-.003-.132-.004-.27-.002-.405l.003-.444c0-.045.03-.06.049-.071l.706-.407c.013-.008.037-.013.037-.01l.003.597c0 .003-.232.13-.244.136-.04.023-.029.069-.029.085l.003.196c.001.057.01.045.033.063.024.019.132.084.185.108.018.008.035.02.048.016l.044-.012.177-.103c.055-.033.046-.063.046-.063s0-.155-.003-.252c0-.013-.009-.027-.023-.041a3.722 3.722 0 0 1-.239-.132v-.598a.094.094 0 0 1 .036.01l.177.101.05-.013V1.102c0-.025.021-.038.035-.038.014 0 .023 0 .035.007l.428.24c.03.017.031.039.032.05z"/><path stroke="red" d="M2.454 1.949c-.003-.02-.01-.052-.07-.019l-.402.223c-.023.017-.048.025-.048.089v.883c-.002.025-.027.053-.044.062l-.18.108c-.043.03-.052.025-.091.002l-.18-.102a.079.079 0 0 1-.039-.07l.004-.888s.002-.05-.042-.075L.94 1.92s-.064-.018-.064.036L.874 3.443c0 .012.011.036.088.08l.653.376a.124.124 0 0 0 .123-.01c.052-.034.654-.372.673-.387.019-.016.05-.034.05-.055l-.007-1.498z"/></g></svg>